<svg version="1.1" xmlns="http://www.w3.org/2000/svg" viewBox="-2615.2960754394526 -1100.8000366210938 10605.568249511718 2721.7920776367187"><desc>Created with Snap</desc><defs></defs><g><rect x="-2615.2960754394526" y="-1100.8000366210938" width="10605.568249511718" height="2721.7920776367187" fill="#9c1f16" style=""></rect><g transform="matrix(35.1232,0,0,35.1232,-2378.3425,-863.8464)"><rect x="10" y="6" width="6" height="2" fill="#ffd348" style=""></rect><rect x="18" y="6" width="6" height="2" fill="#ffd348" style=""></rect><rect x="10" y="10" width="6" height="2" fill="#ffd348" style=""></rect><rect x="18" y="10" width="6" height="2" fill="#ffd348" style=""></rect><rect x="10" y="14" width="6" height="2" fill="#ffd348" style=""></rect><rect x="18" y="14" width="6" height="2" fill="#ffd348" style=""></rect><rect x="10" y="18" width="6" height="2" fill="#ffd348" style=""></rect><rect x="18" y="18" width="6" height="2" fill="#ffd348" style=""></rect><rect x="10" y="22" width="6" height="2" fill="#ffd348" style=""></rect><rect x="18" y="22" width="6" height="2" fill="#ffd348" style=""></rect><rect x="10" y="26" width="6" height="2" fill="#ffd348" style=""></rect><rect x="18" y="26" width="6" height="2" fill="#ffd348" style=""></rect><path d="M31,19v2c0,1.654-1.346,3-3,3V3c0-0.553-0.447-1-1-1H7C6.447,2,6,2.447,6,3v34v2c0,2.757,2.243,5,5,5h1v3  c0,0.266,0.105,0.52,0.293,0.707l2,2C14.48,49.895,14.734,50,15,50h1v2h-5c-1.654,0-3,1.346-3,3v1H3c-0.553,0-1,0.447-1,1v4  c0,0.553,0.447,1,1,1h58c0.553,0,1-0.447,1-1v-4c0-0.553-0.447-1-1-1H26v-1c0-1.654-1.346-3-3-3h-5v-2h1  c0.266,0,0.52-0.105,0.707-0.293l2-2C21.895,47.52,22,47.266,22,47v-3h1c2.757,0,5-2.243,5-5v-1c9.374,0,17-7.626,17-17v-2  c0-1.654,1.346-3,3-3h14v-2H48c-2.757,0-5,2.243-5,5v2c0,8.271-6.729,15-15,15v-2c7.168,0,13-5.832,13-13v-2c0-3.859,3.141-7,7-7h14  v-2H48c-4.963,0-9,4.037-9,9v2c0,6.065-4.935,11-11,11v-2c4.963,0,9-4.037,9-9v-2c0-6.065,4.935-11,11-11h14V6H48  c-7.168,0-13,5.832-13,13v2c0,3.859-3.141,7-7,7v-2c2.757,0,5-2.243,5-5v-2c0-8.271,6.729-15,15-15h14V2H48C38.626,2,31,9.626,31,19  z M60,60H4v-2h5h16h35V60z M24,55v1H10v-1c0-0.552,0.448-1,1-1h12C23.552,54,24,54.448,24,55z M8,4h18v32H8V4z M20,46.586L18.586,48  h-3.172L14,46.586V44h6V46.586z M26,39c0,1.654-1.346,3-3,3h-2h-8h-2c-1.654,0-3-1.346-3-3v-1h18V39z" fill="#ffd348" style=""></path><rect x="34" y="45" width="2" height="2" fill="#ffd348" style=""></rect><rect x="38" y="45" width="2" height="2" fill="#ffd348" style=""></rect><rect x="38" y="49" width="2" height="2" fill="#ffd348" style=""></rect><rect x="38" y="41" width="2" height="2" fill="#ffd348" style=""></rect><rect x="45" y="45" width="2" height="2" fill="#ffd348" style=""></rect><rect x="49" y="45" width="2" height="2" fill="#ffd348" style=""></rect><rect x="49" y="49" width="2" height="2" fill="#ffd348" style=""></rect><rect x="49" y="41" width="2" height="2" fill="#ffd348" style=""></rect><rect x="56" y="45" width="2" height="2" fill="#ffd348" style=""></rect><rect x="60" y="45" width="2" height="2" fill="#ffd348" style=""></rect><rect x="60" y="49" width="2" height="2" fill="#ffd348" style=""></rect><rect x="60" y="41" width="2" height="2" fill="#ffd348" style=""></rect><desc>Created with Snap</desc><defs></defs></g><g><g transform="matrix(1.024,0,0,-1.024,0,0)"><path d="M202 723L202 432L199 396L212 414L508 723L633 723L334 413L650 0L527 0L263 351L202 292L202 0L104 0L104 723L202 723ZM952 -10Q881 -10 830 18Q779 47 751 96Q724 146 724 210Q724 271 755 321Q786 371 838 401Q890 431 954 431Q1036 431 1090 383Q1144 335 1163 251L822 131L800 186L1080 288L1060 275Q1048 308 1020 332Q992 357 947 357Q909 357 879 338Q849 320 832 288Q815 256 815 215Q815 172 833 139Q851 107 882 88Q914 70 954 70Q981 70 1006 80Q1032 90 1054 106L1097 37Q1066 16 1027 3Q989 -10 952 -10ZM1472 -10Q1401 -10 1350 18Q1299 47 1271 96Q1244 146 1244 210Q1244 271 1275 321Q1306 371 1358 401Q1410 431 1474 431Q1556 431 1610 383Q1664 335 1683 251L1342 131L1320 186L1600 288L1580 275Q1568 308 1540 332Q1512 357 1467 357Q1429 357 1399 338Q1369 320 1352 288Q1335 256 1335 215Q1335 172 1353 139Q1371 107 1402 88Q1434 70 1474 70Q1501 70 1526 80Q1552 90 1574 106L1617 37Q1586 16 1547 3Q1509 -10 1472 -10ZM2044 -10Q1997 -10 1953 12Q1910 34 1886 71L1892 100L1892 -199L1800 -199L1800 420L1880 420L1893 314L1883 343Q1913 381 1959 406Q2005 431 2062 431Q2120 431 2166 403Q2213 375 2240 325Q2267 275 2267 208Q2267 141 2238 92Q2209 43 2158 16Q2108 -10 2044 -10ZM2026 64Q2066 64 2099 82Q2133 101 2153 133Q2173 166 2173 207Q2173 249 2154 281Q2135 314 2103 333Q2072 352 2033 352Q1997 352 1968 338Q1939 324 1920 299Q1901 275 1893 243L1893 174Q1898 142 1917 117Q1936 92 1964 78Q1993 64 2026 64ZM2509 -8Q2465 -8 2423 7Q2382 23 2355 54L2394 108Q2420 83 2447 70Q2475 58 2502 58Q2522 58 2539 63Q2556 68 2566 79Q2577 91 2577 111Q2577 133 2562 146Q2548 159 2525 167Q2503 175 2478 182Q2427 199 2400 229Q2373 259 2373 302Q2373 335 2389 363Q2406 392 2438 410Q2471 428 2519 428Q2562 428 2596 417Q2630 407 2660 383L2623 325Q2605 344 2580 353Q2555 362 2535 363Q2518 364 2502 358Q2487 352 2477 341Q2467 330 2467 315Q2467 294 2481 281Q2495 268 2517 260Q2540 253 2562 245Q2593 236 2617 221Q2641 206 2655 184Q2670 162 2670 129Q2670 92 2652 60Q2635 29 2599 10Q2564 -8 2509 -8ZM2972 -10Q2914 -10 2866 15Q2819 40 2791 88Q2764 137 2764 207Q2764 276 2793 326Q2822 377 2870 404Q2919 431 2977 431Q3035 431 3075 404Q3115 378 3136 342L3130 326L3139 414L3225 414L3225 0L3132 0L3132 108L3142 84Q3138 74 3124 58Q3111 43 3088 27Q3066 11 3037 0Q3008 -10 2972 -10ZM2997 67Q3032 67 3060 80Q3088 93 3106 116Q3125 140 3132 173L3132 254Q3124 284 3104 306Q3084 329 3056 341Q3028 354 2994 354Q2957 354 2926 336Q2895 318 2876 286Q2858 254 2858 211Q2858 171 2877 138Q2896 105 2928 86Q2960 67 2997 67ZM3513 0L3420 0L3420 331L3349 331L3349 414L3420 414L3420 589Q3420 679 3460 727Q3501 775 3580 775Q3601 775 3626 769Q3652 763 3671 749L3632 682Q3623 691 3612 694Q3601 698 3590 698Q3553 698 3533 673Q3513 648 3513 588L3513 414L3644 414L3644 331L3513 331L3513 0ZM3957 -10Q3886 -10 3835 18Q3784 47 3756 96Q3729 146 3729 210Q3729 271 3760 321Q3791 371 3843 401Q3895 431 3959 431Q4041 431 4095 383Q4149 335 4168 251L3827 131L3805 186L4085 288L4065 275Q4053 308 4025 332Q3997 357 3952 357Q3914 357 3884 338Q3854 320 3837 288Q3820 256 3820 215Q3820 172 3838 139Q3856 107 3887 88Q3919 70 3959 70Q3986 70 4011 80Q4037 90 4059 106L4102 37Q4071 16 4032 3Q3994 -10 3957 -10ZM4624 0L4624 723L5053 723L5053 630L4721 630L4721 399L5012 399L5012 307L4721 307L4721 0L4624 0ZM5362 -10Q5304 -10 5256 15Q5209 40 5181 88Q5154 137 5154 207Q5154 276 5183 326Q5212 377 5260 404Q5309 431 5367 431Q5425 431 5465 404Q5505 378 5526 342L5520 326L5529 414L5615 414L5615 0L5522 0L5522 108L5532 84Q5528 74 5514 58Q5501 43 5478 27Q5456 11 5427 0Q5398 -10 5362 -10ZM5387 67Q5422 67 5450 80Q5478 93 5496 116Q5515 140 5522 173L5522 254Q5514 284 5494 306Q5474 329 5446 341Q5418 354 5384 354Q5347 354 5316 336Q5285 318 5266 286Q5248 254 5248 211Q5248 171 5267 138Q5286 105 5318 86Q5350 67 5387 67ZM5776 414L5859 414L5867 321L5863 329Q5886 376 5928 403Q5971 430 6026 430Q6061 430 6088 419Q6115 408 6132 387Q6150 367 6155 337L6150 334Q6174 379 6216 404Q6259 430 6306 430Q6367 430 6402 395Q6438 361 6439 306L6439 0L6346 0L6346 273Q6345 305 6330 326Q6316 348 6280 350Q6244 350 6215 328Q6187 306 6171 271Q6155 237 6154 197L6154 0L6061 0L6061 273Q6060 305 6044 326Q6029 348 5993 350Q5956 350 5928 328Q5900 306 5884 271Q5869 236 5869 196L5869 0L5776 0L5776 414ZM6601 0L6601 414L6694 414L6694 0L6601 0ZM6594 564Q6594 586 6611 601Q6629 616 6650 616Q6671 616 6687 601Q6704 586 6704 564Q6704 541 6687 526Q6671 512 6650 512Q6629 512 6611 527Q6594 542 6594 564ZM6855 0L6855 774L6948 774L6948 0L6855 0ZM7236 -199L7144 -199L7417 414L7503 414L7236 -199ZM7319 44L7246 -3L7047 414L7152 414L7319 44Z" fill="#ffffff" style=""></path></g></g><g transform="matrix(1,0,0,1,0,1303.5521)"><g transform="matrix(1.024,0,0,-1.024,0,0)"><path d="M104 723L290 723Q399 723 461 678Q524 634 524 540Q524 483 498 441Q472 399 425 375Q379 351 316 348L302 398Q375 396 433 372Q491 348 525 305Q559 262 559 203Q559 149 539 110Q519 72 485 47Q451 23 408 11Q365 0 319 0L104 0L104 723ZM201 406L310 406Q370 406 397 439Q424 473 424 521Q424 578 389 604Q354 630 295 630L201 630L201 406ZM201 90L314 90Q354 90 387 102Q421 114 440 139Q460 164 460 202Q460 244 437 268Q415 292 380 302Q345 313 308 313L201 313L201 90ZM871 -10Q813 -10 765 15Q718 40 690 88Q663 137 663 207Q663 276 692 326Q721 377 769 404Q818 431 876 431Q934 431 974 404Q1014 378 1035 342L1029 326L1038 414L1124 414L1124 0L1031 0L1031 108L1041 84Q1037 74 1023 58Q1010 43 987 27Q965 11 936 0Q907 -10 871 -10ZM896 67Q931 67 959 80Q987 93 1005 116Q1024 140 1031 173L1031 254Q1023 284 1003 306Q983 329 955 341Q927 354 893 354Q856 354 825 336Q794 318 775 286Q757 254 757 211Q757 171 776 138Q795 105 827 86Q859 67 896 67ZM1285 414L1368 414L1376 313L1372 329Q1392 375 1437 402Q1482 430 1541 430Q1600 430 1637 395Q1675 361 1676 306L1676 0L1582 0L1582 273Q1581 307 1562 328Q1544 350 1505 350Q1469 350 1440 330Q1411 310 1394 275Q1378 240 1378 194L1378 0L1285 0L1285 414ZM1931 0L1838 0L1838 774L1931 774L1931 0ZM1969 223L2031 275L2221 0L2112 0L1969 223ZM2201 374L1902 132L1893 221L2144 423L2201 374Z" fill="#ffffff" style=""></path></g></g></g></svg>